{
  "accessors": [
    {
      "bufferView": 2,
      "componentType": 5126,
      "count": 441,
      "max": [
        0.6978643536567688,
        0.9985103607177734,
        1.0299019813537598
      ],
      "min": [
        -0.6310466527938843,
        -0.001850837143138051,
        -0.9722657799720764
      ],
      "type": "VEC3"
    },
    {
      "bufferView": 2,
      "byteOffset": 5292,
      "componentType": 5126,
      "count": 441,
      "max": [
        0.9206998944282532,
        0.9999862313270569,
        0.9070112109184265
      ],
      "min": [
        -0.8921694755554199,
        -0.7820910215377808,
        -0.9118301868438721
      ],
      "type": "VEC3"
    },
    {
      "bufferView": 3,
      "componentType": 5126,
      "count": 441,
      "max": [
        0.9989386200904846,
        0.8294408321380615,
        0.9996357560157776,
        1.0
      ],
      "min": [
        -0.98710036277771,
        -0.7458963990211487,
        -0.9991273880004883,
        1.0
      ],
      "type": "VEC4"
    },
    {
      "bufferView": 1,
      "componentType": 5126,
      "count": 441,
      "max": [
        0.9892827868461609,
        0.9810706973075867
      ],
      "min": [
        0.023774869740009308,
        0.016440723091363907
      ],
      "type": "VEC2"
    },
    {
      "bufferView": 1,
      "byteOffset": 3528,
      "componentType": 5126,
      "count": 441,
      "max": [
        0.9892827868461609,
        0.9810706973075867
      ],
      "min": [
        0.023774869740009308,
        0.016440723091363907
      ],
      "type": "VEC2"
    },
    {
      "bufferView": 1,
      "byteOffset": 7056,
      "componentType": 5126,
      "count": 441,
      "max": [
        0.9892827868461609,
        0.9810706973075867
      ],
      "min": [
        0.023774869740009308,
        0.016440723091363907
      ],
      "type": "VEC2"
    },
    {
      "bufferView": 1,
      "byteOffset": 10584,
      "componentType": 5126,
      "count": 441,
      "max": [
        0.9892827868461609,
        0.9810706973075867
      ],
      "min": [
        0.023774869740009308,
        0.016440723091363907
      ],
      "type": "VEC2"
    },
    {
      "bufferView": 0,
      "componentType": 5125,
      "count": 1596,
      "type": "SCALAR"
    },
    {
      "bufferView": 2,
      "byteOffset": 10584,
      "componentType": 5126,
      "count": 483,
      "max": [
        0.7924264669418335,
        0.9078618884086609,
        0.5505595207214355
      ],
      "min": [
        -0.7495107650756836,
        -0.0023748506791889668,
        -1.0110269784927368
      ],
      "type": "VEC3"
    },
    {
      "bufferView": 2,
      "byteOffset": 16380,
      "componentType": 5126,
      "count": 483,
      "max": [
        0.9991198778152466,
        0.9991083145141602,
        0.9993740320205688
      ],
      "min": [
        -0.9944687485694885,
        -0.49097034335136414,
        -0.9992974400520325
      ],
      "type": "VEC3"
    },
    {
      "bufferView": 3,
      "byteOffset": 7056,
      "componentType": 5126,
      "count": 483,
      "max": [
        0.9987068772315979,
        0.5524963736534119,
        0.9988722801208496,
        1.0
      ],
      "min": [
        -0.9973757266998291,
        -0.950725257396698,
        -0.9996390342712402,
        1.0
      ],
      "type": "VEC4"
    },
    {
      "bufferView": 1,
      "byteOffset": 14112,
      "componentType": 5126,
      "count": 483,
      "max": [
        0.9816261529922485,
        0.9805883169174194
      ],
      "min": [
        0.12732648849487305,
        0.015586670488119125
      ],
      "type": "VEC2"
    },
    {
      "bufferView": 1,
      "byteOffset": 17976,
      "componentType": 5126,
      "count": 483,
      "max": [
        0.9816261529922485,
        0.9805883169174194
      ],
      "min": [
        0.12732648849487305,
        0.015586670488119125
      ],
      "type": "VEC2"
    },
    {
      "bufferView": 1,
      "byteOffset": 21840,
      "componentType": 5126,
      "count": 483,
      "max": [
        0.9816261529922485,
        0.9805883169174194
      ],
      "min": [
        0.12732648849487305,
        0.015586670488119125
      ],
      "type": "VEC2"
    },
    {
      "bufferView": 1,
      "byteOffset": 25704,
      "componentType": 5126,
      "count": 483,
      "max": [
        0.9816261529922485,
        0.9805883169174194
      ],
      "min": [
        0.12732648849487305,
        0.015586670488119125
      ],
      "type": "VEC2"
    },
    {
      "bufferView": 0,
      "byteOffset": 6384,
      "componentType": 5125,
      "count": 1764,
      "type": "SCALAR"
    }
  ],
  "asset": {
    "extras": {
      "author": "eb78 (https://sketchfab.com/E.A.Cornell)",
      "license": "CC-BY-4.0 (http://creativecommons.org/licenses/by/4.0/)",
      "source": "https://sketchfab.com/3d-models/monstera-plants-28bb9cca91e6479cadcd9c55242f43c1",
      "title": "Monstera Plants"
    },
    "generator": "Sketchfab-15.31.0",
    "version": "2.0"
  },
  "bufferViews": [
    {
      "buffer": 0,
      "byteLength": 13440,
      "name": "floatBufferViews",
      "target": 34963
    },
    {
      "buffer": 0,
      "byteLength": 29568,
      "byteOffset": 13440,
      "byteStride": 8,
      "name": "floatBufferViews",
      "target": 34962
    },
    {
      "buffer": 0,
      "byteLength": 22176,
      "byteOffset": 43008,
      "byteStride": 12,
      "name": "floatBufferViews",
      "target": 34962
    },
    {
      "buffer": 0,
      "byteLength": 14784,
      "byteOffset": 65184,
      "byteStride": 16,
      "name": "floatBufferViews",
      "target": 34962
    }
  ],
  "buffers": [
    {
      "byteLength": 79968,
      "uri": "scene.bin"
    }
  ],
  "extensionsUsed": [
    "KHR_materials_specular"
  ],
  "images": [
    {
      "uri": "textures/Monstera_Mat_baseColor.png"
    },
    {
      "uri": "textures/Monstera_Mat_metallicRoughness.png"
    },
    {
      "uri": "textures/Monstera_Mat_normal.png"
    }
  ],
  "materials": [
    {
      "alphaMode": "MASK",
      "doubleSided": true,
      "extensions": {
        "KHR_materials_specular": {
          "specularColorFactor": [
            1.0,
            1.0,
            1.0
          ],
          "specularFactor": 0.4856538026438752
        }
      },
      "name": "Monstera_Mat",
      "normalTexture": {
        "index": 2
      },
      "pbrMetallicRoughness": {
        "baseColorTexture": {
          "index": 0
        },
        "metallicFactor": 0.0,
        "metallicRoughnessTexture": {
          "index": 1
        }
      }
    }
  ],
  "meshes": [
    {
      "name": "Object_0",
      "primitives": [
        {
          "attributes": {
            "NORMAL": 1,
            "POSITION": 0,
            "TANGENT": 2,
            "TEXCOORD_0": 3,
            "TEXCOORD_1": 4,
            "TEXCOORD_2": 5,
            "TEXCOORD_3": 6
          },
          "indices": 7,
          "material": 0,
          "mode": 4
        }
      ]
    },
    {
      "name": "Object_1",
      "primitives": [
        {
          "attributes": {
            "NORMAL": 9,
            "POSITION": 8,
            "TANGENT": 10,
            "TEXCOORD_0": 11,
            "TEXCOORD_1": 12,
            "TEXCOORD_2": 13,
            "TEXCOORD_3": 14
          },
          "indices": 15,
          "material": 0,
          "mode": 4
        }
      ]
    }
  ],
  "nodes": [
    {
      "children": [
        1
      ],
      "matrix": [
        1.0,
        0.0,
        0.0,
        0.0,
        0.0,
        2.220446049250313e-16,
        -1.0,
        0.0,
        0.0,
        1.0,
        2.220446049250313e-16,
        0.0,
        0.0,
        0.0,
        0.0,
        1.0
      ],
      "name": "Sketchfab_model"
    },
    {
      "children": [
        2
      ],
      "name": "root"
    },
    {
      "children": [
        3,
        5
      ],
      "matrix": [
        1.0,
        0.0,
        0.0,
        0.0,
        0.0,
        2.220446049250313e-16,
        1.0,
        0.0,
        0.0,
        -1.0,
        2.220446049250313e-16,
        0.0,
        0.0,
        0.0,
        0.0,
        1.0
      ],
      "name": "GLTF_SceneRootNode"
    },
    {
      "children": [
        4
      ],
      "matrix": [
        1.0,
        0.0,
        0.0,
        0.0,
        0.0,
        1.0,
        0.0,
        0.0,
        0.0,
        0.0,
        1.0,
        0.0,
        -0.6176236271858215,
        0.0,
        0.0,
        1.0
      ],
      "name": "Monstera_001_0"
    },
    {
      "mesh": 0,
      "name": "Object_4"
    },
    {
      "children": [
        6
      ],
      "matrix": [
        1.0,
        0.0,
        0.0,
        0.0,
        0.0,
        1.0,
        0.0,
        0.0,
        0.0,
        0.0,
        1.0,
        0.0,
        0.6496273875236511,
        0.0,
        0.0,
        1.0
      ],
      "name": "Monstera_002_1"
    },
    {
      "mesh": 1,
      "name": "Object_6"
    }
  ],
  "samplers": [
    {
      "magFilter": 9729,
      "minFilter": 9987,
      "wrapS": 10497,
      "wrapT": 10497
    }
  ],
  "scene": 0,
  "scenes": [
    {
      "name": "Sketchfab_Scene",
      "nodes": [
        0
      ]
    }
  ],
  "textures": [
    {
      "sampler": 0,
      "source": 0
    },
    {
      "sampler": 0,
      "source": 1
    },
    {
      "sampler": 0,
      "source": 2
    }
  ]
}
